<svg width="132" height="64" viewBox="0 0 132 64" fill="none" xmlns="http://www.w3.org/2000/svg">
<mask id="path-1-outside-1_21_233" maskUnits="userSpaceOnUse" x="0" y="0" width="132" height="64" fill="black">
<rect fill="white" width="132" height="64"/>
<path d="M5.03125 58.875V19.5C5.03125 10.125 9.71875 5.4375 19.0938 5.4375H29.875C39.25 5.4375 43.9375 10.125 43.9375 19.5V54.6562L35.0312 58.875H34.5625V19.5C34.5625 15.75 33 13.875 29.875 13.875H19.0938C15.9688 13.875 14.4062 15.75 14.4062 19.5V54.6562L5.5 58.875H5.03125ZM58 58.875V19.5C58 10.125 62.6875 5.4375 72.0625 5.4375H82.8438C87.1562 5.4375 90.2812 6.59375 92.2188 8.90625C94.2812 6.59375 97.4062 5.4375 101.594 5.4375H112.375C121.75 5.4375 126.438 10.125 126.438 19.5V54.6562L117.531 58.875H117.062V19.5C117.062 15.75 115.5 13.875 112.375 13.875H101.594C98.4688 13.875 96.9062 15.75 96.9062 19.5V54.6562L88 58.875H87.5312V19.5C87.5312 15.75 85.9688 13.875 82.8438 13.875H72.0625C68.9375 13.875 67.375 15.75 67.375 19.5V54.6562L58.4688 58.875H58Z"/>
</mask>
<path d="M5.03125 58.875V19.5C5.03125 10.125 9.71875 5.4375 19.0938 5.4375H29.875C39.25 5.4375 43.9375 10.125 43.9375 19.5V54.6562L35.0312 58.875H34.5625V19.5C34.5625 15.75 33 13.875 29.875 13.875H19.0938C15.9688 13.875 14.4062 15.75 14.4062 19.5V54.6562L5.5 58.875H5.03125ZM58 58.875V19.5C58 10.125 62.6875 5.4375 72.0625 5.4375H82.8438C87.1562 5.4375 90.2812 6.59375 92.2188 8.90625C94.2812 6.59375 97.4062 5.4375 101.594 5.4375H112.375C121.75 5.4375 126.438 10.125 126.438 19.5V54.6562L117.531 58.875H117.062V19.5C117.062 15.75 115.5 13.875 112.375 13.875H101.594C98.4688 13.875 96.9062 15.75 96.9062 19.5V54.6562L88 58.875H87.5312V19.5C87.5312 15.75 85.9688 13.875 82.8438 13.875H72.0625C68.9375 13.875 67.375 15.75 67.375 19.5V54.6562L58.4688 58.875H58Z" fill="#FBBF24"/>
<path d="M5.03125 58.875H0.03125V63.875H5.03125V58.875ZM43.9375 54.6562L46.0779 59.1749L48.9375 57.8204V54.6562H43.9375ZM35.0312 58.875V63.875H36.1556L37.1717 63.3937L35.0312 58.875ZM34.5625 58.875H29.5625V63.875H34.5625V58.875ZM14.4062 54.6562L16.5467 59.1749L19.4062 57.8204V54.6562H14.4062ZM5.5 58.875V63.875H6.62433L7.64043 63.3937L5.5 58.875ZM5.03125 58.875H10.0312V19.5H5.03125H0.03125V58.875H5.03125ZM5.03125 19.5H10.0312C10.0312 15.5832 11.0071 13.564 12.0824 12.4887C13.1578 11.4133 15.177 10.4375 19.0938 10.4375V5.4375V0.4375C13.6355 0.4375 8.62349 1.80544 5.01134 5.41759C1.39919 9.02974 0.03125 14.0418 0.03125 19.5H5.03125ZM19.0938 5.4375V10.4375H29.875V5.4375V0.4375H19.0938V5.4375ZM29.875 5.4375V10.4375C33.7918 10.4375 35.811 11.4133 36.8863 12.4887C37.9617 13.564 38.9375 15.5832 38.9375 19.5H43.9375H48.9375C48.9375 14.0418 47.5696 9.02974 43.9574 5.41759C40.3453 1.80544 35.3332 0.4375 29.875 0.4375V5.4375ZM43.9375 19.5H38.9375V54.6562H43.9375H48.9375V19.5H43.9375ZM43.9375 54.6562L41.7971 50.1376L32.8908 54.3563L35.0312 58.875L37.1717 63.3937L46.0779 59.1749L43.9375 54.6562ZM35.0312 58.875V53.875H34.5625V58.875V63.875H35.0312V58.875ZM34.5625 58.875H39.5625V19.5H34.5625H29.5625V58.875H34.5625ZM34.5625 19.5H39.5625C39.5625 17.0538 39.0717 14.2883 37.2317 12.0803C35.2462 9.6977 32.4722 8.875 29.875 8.875V13.875V18.875C30.1665 18.875 30.1957 18.9197 30.0688 18.8689C30.0029 18.8426 29.9113 18.7967 29.8099 18.7237C29.7079 18.6502 29.6196 18.5663 29.5495 18.4822C29.4062 18.3102 29.4098 18.2255 29.4519 18.3773C29.4975 18.5414 29.5625 18.8934 29.5625 19.5H34.5625ZM29.875 13.875V8.875H19.0938V13.875V18.875H29.875V13.875ZM19.0938 13.875V8.875C16.4966 8.875 13.7225 9.6977 11.737 12.0803C9.89701 14.2883 9.40625 17.0538 9.40625 19.5H14.4062H19.4062C19.4062 18.8934 19.4712 18.5414 19.5168 18.3773C19.559 18.2255 19.5625 18.3102 19.4192 18.4822C19.3491 18.5663 19.2609 18.6502 19.1588 18.7237C19.0575 18.7967 18.9658 18.8426 18.8999 18.8689C18.7731 18.9197 18.8022 18.875 19.0938 18.875V13.875ZM14.4062 19.5H9.40625V54.6562H14.4062H19.4062V19.5H14.4062ZM14.4062 54.6562L12.2658 50.1376L3.35957 54.3563L5.5 58.875L7.64043 63.3937L16.5467 59.1749L14.4062 54.6562ZM5.5 58.875V53.875H5.03125V58.875V63.875H5.5V58.875ZM58 58.875H53V63.875H58V58.875ZM92.2188 8.90625L88.3861 12.1173L92.1005 16.5506L95.9502 12.2343L92.2188 8.90625ZM126.438 54.6562L128.578 59.1749L131.438 57.8204V54.6562H126.438ZM117.531 58.875V63.875H118.656L119.672 63.3937L117.531 58.875ZM117.062 58.875H112.062V63.875H117.062V58.875ZM96.9062 54.6562L99.0467 59.1749L101.906 57.8204V54.6562H96.9062ZM88 58.875V63.875H89.1243L90.1404 63.3937L88 58.875ZM87.5312 58.875H82.5312V63.875H87.5312V58.875ZM67.375 54.6562L69.5154 59.1749L72.375 57.8204V54.6562H67.375ZM58.4688 58.875V63.875H59.5931L60.6092 63.3937L58.4688 58.875ZM58 58.875H63V19.5H58H53V58.875H58ZM58 19.5H63C63 15.5832 63.9758 13.564 65.0512 12.4887C66.1265 11.4133 68.1457 10.4375 72.0625 10.4375V5.4375V0.4375C66.6043 0.4375 61.5922 1.80544 57.9801 5.41759C54.3679 9.02974 53 14.0418 53 19.5H58ZM72.0625 5.4375V10.4375H82.8438V5.4375V0.4375H72.0625V5.4375ZM82.8438 5.4375V10.4375C86.3353 10.4375 87.7529 11.3615 88.3861 12.1173L92.2188 8.90625L96.0514 5.69515C92.8096 1.82596 87.9772 0.4375 82.8438 0.4375V5.4375ZM92.2188 8.90625L95.9502 12.2343C96.7634 11.3225 98.307 10.4375 101.594 10.4375V5.4375V0.4375C96.5055 0.4375 91.7991 1.86495 88.4873 5.57818L92.2188 8.90625ZM101.594 5.4375V10.4375H112.375V5.4375V0.4375H101.594V5.4375ZM112.375 5.4375V10.4375C116.292 10.4375 118.311 11.4133 119.386 12.4887C120.462 13.564 121.438 15.5832 121.438 19.5H126.438H131.438C131.438 14.0418 130.07 9.02974 126.457 5.41759C122.845 1.80544 117.833 0.4375 112.375 0.4375V5.4375ZM126.438 19.5H121.438V54.6562H126.438H131.438V19.5H126.438ZM126.438 54.6562L124.297 50.1376L115.391 54.3563L117.531 58.875L119.672 63.3937L128.578 59.1749L126.438 54.6562ZM117.531 58.875V53.875H117.062V58.875V63.875H117.531V58.875ZM117.062 58.875H122.062V19.5H117.062H112.062V58.875H117.062ZM117.062 19.5H122.062C122.062 17.0538 121.572 14.2883 119.732 12.0803C117.746 9.6977 114.972 8.875 112.375 8.875V13.875V18.875C112.667 18.875 112.696 18.9197 112.569 18.8689C112.503 18.8426 112.411 18.7967 112.31 18.7237C112.208 18.6502 112.12 18.5663 112.05 18.4822C111.906 18.3102 111.91 18.2255 111.952 18.3773C111.998 18.5414 112.062 18.8934 112.062 19.5H117.062ZM112.375 13.875V8.875H101.594V13.875V18.875H112.375V13.875ZM101.594 13.875V8.875C98.9966 8.875 96.2225 9.6977 94.237 12.0803C92.397 14.2883 91.9062 17.0538 91.9062 19.5H96.9062H101.906C101.906 18.8934 101.971 18.5414 102.017 18.3773C102.059 18.2255 102.063 18.3102 101.919 18.4822C101.849 18.5663 101.761 18.6502 101.659 18.7237C101.557 18.7967 101.466 18.8426 101.4 18.8689C101.273 18.9197 101.302 18.875 101.594 18.875V13.875ZM96.9062 19.5H91.9062V54.6562H96.9062H101.906V19.5H96.9062ZM96.9062 54.6562L94.7658 50.1376L85.8596 54.3563L88 58.875L90.1404 63.3937L99.0467 59.1749L96.9062 54.6562ZM88 58.875V53.875H87.5312V58.875V63.875H88V58.875ZM87.5312 58.875H92.5312V19.5H87.5312H82.5312V58.875H87.5312ZM87.5312 19.5H92.5312C92.5312 17.0538 92.0405 14.2883 90.2005 12.0803C88.215 9.6977 85.4409 8.875 82.8438 8.875V13.875V18.875C83.1353 18.875 83.1644 18.9197 83.0376 18.8689C82.9717 18.8426 82.88 18.7967 82.7787 18.7237C82.6766 18.6502 82.5884 18.5663 82.5183 18.4822C82.375 18.3102 82.3785 18.2255 82.4207 18.3773C82.4663 18.5414 82.5312 18.8934 82.5312 19.5H87.5312ZM82.8438 13.875V8.875H72.0625V13.875V18.875H82.8438V13.875ZM72.0625 13.875V8.875C69.4653 8.875 66.6913 9.6977 64.7058 12.0803C62.8658 14.2883 62.375 17.0538 62.375 19.5H67.375H72.375C72.375 18.8934 72.44 18.5414 72.4856 18.3773C72.5277 18.2255 72.5313 18.3102 72.388 18.4822C72.3179 18.5663 72.2296 18.6502 72.1276 18.7237C72.0262 18.7967 71.9346 18.8426 71.8687 18.8689C71.7418 18.9197 71.771 18.875 72.0625 18.875V13.875ZM67.375 19.5H62.375V54.6562H67.375H72.375V19.5H67.375ZM67.375 54.6562L65.2346 50.1376L56.3283 54.3563L58.4688 58.875L60.6092 63.3937L69.5154 59.1749L67.375 54.6562ZM58.4688 58.875V53.875H58V58.875V63.875H58.4688V58.875Z" fill="#FBBF24" fill-opacity="0.28" mask="url(#path-1-outside-1_21_233)"/>
</svg>
