<svg width="114" height="58" viewBox="0 0 114 58" fill="none" xmlns="http://www.w3.org/2000/svg">
<mask id="path-1-outside-1_19_229" maskUnits="userSpaceOnUse" x="0" y="0" width="114" height="58" fill="black">
<rect fill="white" width="114" height="58"/>
<path d="M5.928 53V6.344H12.456L13.128 14.312H13.512C15.944 11.688 18.568 9.512 21.384 7.784C24.2 6.056 27.432 5.192 31.08 5.192C36.584 5.192 40.648 6.792 43.272 9.992C45.896 13.192 47.208 17.864 47.208 24.008V53H39.336V25.064C39.336 20.648 38.504 17.384 36.84 15.272C35.176 13.096 32.424 12.008 28.584 12.008C25.832 12.008 23.368 12.712 21.192 14.12C19.016 15.528 16.552 17.64 13.8 20.456V53H5.928ZM60.1305 53V6.344H66.4665L67.1385 12.488H67.3305C68.5465 10.312 69.9545 8.552 71.5545 7.208C73.1545 5.864 75.2985 5.192 77.9865 5.192C80.2905 5.192 82.1785 5.864 83.6505 7.208C85.1225 8.552 86.1785 10.568 86.8185 13.256C88.1625 10.76 89.6345 8.808 91.2345 7.4C92.8985 5.928 95.0745 5.192 97.7625 5.192C101.027 5.192 103.555 6.44 105.347 8.936C107.203 11.368 108.131 14.92 108.131 19.592V53H100.259V20.168C100.259 14.728 98.5945 12.008 95.2665 12.008C93.6665 12.008 92.3225 12.616 91.2345 13.832C90.2105 14.984 89.0585 16.776 87.7785 19.208V53H80.4825V20.168C80.4825 17.48 80.0985 15.464 79.3305 14.12C78.6265 12.712 77.4105 12.008 75.6825 12.008C74.0825 12.008 72.6745 12.616 71.4585 13.832C70.3065 14.984 69.1545 16.776 68.0025 19.208V53H60.1305Z"/>
</mask>
<path d="M5.928 53V6.344H12.456L13.128 14.312H13.512C15.944 11.688 18.568 9.512 21.384 7.784C24.2 6.056 27.432 5.192 31.08 5.192C36.584 5.192 40.648 6.792 43.272 9.992C45.896 13.192 47.208 17.864 47.208 24.008V53H39.336V25.064C39.336 20.648 38.504 17.384 36.84 15.272C35.176 13.096 32.424 12.008 28.584 12.008C25.832 12.008 23.368 12.712 21.192 14.12C19.016 15.528 16.552 17.64 13.8 20.456V53H5.928ZM60.1305 53V6.344H66.4665L67.1385 12.488H67.3305C68.5465 10.312 69.9545 8.552 71.5545 7.208C73.1545 5.864 75.2985 5.192 77.9865 5.192C80.2905 5.192 82.1785 5.864 83.6505 7.208C85.1225 8.552 86.1785 10.568 86.8185 13.256C88.1625 10.76 89.6345 8.808 91.2345 7.4C92.8985 5.928 95.0745 5.192 97.7625 5.192C101.027 5.192 103.555 6.44 105.347 8.936C107.203 11.368 108.131 14.92 108.131 19.592V53H100.259V20.168C100.259 14.728 98.5945 12.008 95.2665 12.008C93.6665 12.008 92.3225 12.616 91.2345 13.832C90.2105 14.984 89.0585 16.776 87.7785 19.208V53H80.4825V20.168C80.4825 17.48 80.0985 15.464 79.3305 14.12C78.6265 12.712 77.4105 12.008 75.6825 12.008C74.0825 12.008 72.6745 12.616 71.4585 13.832C70.3065 14.984 69.1545 16.776 68.0025 19.208V53H60.1305Z" fill="#FBBF24"/>
<path d="M5.928 53H0.928V58H5.928V53ZM5.928 6.344V1.344H0.928V6.344H5.928ZM12.456 6.344L17.4383 5.9238L17.0521 1.344H12.456V6.344ZM13.128 14.312L8.14569 14.7322L8.53194 19.312H13.128V14.312ZM13.512 14.312V19.312H15.6951L17.1792 17.7108L13.512 14.312ZM21.384 7.784L23.9991 12.0456L23.9991 12.0456L21.384 7.784ZM43.272 9.992L47.1383 6.8216L47.1383 6.8216L43.272 9.992ZM47.208 53V58H52.208V53H47.208ZM39.336 53H34.336V58H39.336V53ZM36.84 15.272L32.8682 18.3092L32.8902 18.338L32.9125 18.3664L36.84 15.272ZM21.192 14.12L18.4757 9.92215L18.4757 9.92215L21.192 14.12ZM13.8 20.456L10.2241 16.9613L8.8 18.4185V20.456H13.8ZM13.8 53V58H18.8V53H13.8ZM5.928 53H10.928V6.344H5.928H0.928V53H5.928ZM5.928 6.344V11.344H12.456V6.344V1.344H5.928V6.344ZM12.456 6.344L7.47369 6.76419L8.14569 14.7322L13.128 14.312L18.1103 13.8918L17.4383 5.9238L12.456 6.344ZM13.128 14.312V19.312H13.512V14.312V9.312H13.128V14.312ZM13.512 14.312L17.1792 17.7108C19.3269 15.3935 21.6022 13.5164 23.9991 12.0456L21.384 7.784L18.7689 3.52238C15.5338 5.50755 12.5611 7.98249 9.84485 10.9132L13.512 14.312ZM21.384 7.784L23.9991 12.0456C25.9478 10.8498 28.2559 10.192 31.08 10.192V5.192V0.191998C26.6081 0.191998 22.4522 1.26219 18.7689 3.52239L21.384 7.784ZM31.08 5.192V10.192C35.6144 10.192 38.022 11.475 39.4057 13.1624L43.272 9.992L47.1383 6.8216C43.274 2.10901 37.5536 0.191998 31.08 0.191998V5.192ZM43.272 9.992L39.4057 13.1624C41.0147 15.1246 42.208 18.4794 42.208 24.008H47.208H52.208C52.208 17.2486 50.7773 11.2594 47.1383 6.8216L43.272 9.992ZM47.208 24.008H42.208V53H47.208H52.208V24.008H47.208ZM47.208 53V48H39.336V53V58H47.208V53ZM39.336 53H44.336V25.064H39.336H34.336V53H39.336ZM39.336 25.064H44.336C44.336 20.1897 43.4484 15.5803 40.7675 12.1776L36.84 15.272L32.9125 18.3664C33.5596 19.1877 34.336 21.1063 34.336 25.064H39.336ZM36.84 15.272L40.8118 12.2347C37.8607 8.37561 33.3175 7.008 28.584 7.008V12.008V17.008C31.5305 17.008 32.4913 17.8164 32.8682 18.3092L36.84 15.272ZM28.584 12.008V7.008C24.9307 7.008 21.5118 7.95763 18.4757 9.92215L21.192 14.12L23.9083 18.3178C25.2242 17.4664 26.7333 17.008 28.584 17.008V12.008ZM21.192 14.12L18.4757 9.92215C15.8716 11.6072 13.1165 14.0016 10.2241 16.9613L13.8 20.456L17.3759 23.9507C19.9875 21.2784 22.1604 19.4488 23.9083 18.3178L21.192 14.12ZM13.8 20.456H8.8V53H13.8H18.8V20.456H13.8ZM13.8 53V48H5.928V53V58H13.8V53ZM60.1305 53H55.1305V58H60.1305V53ZM60.1305 6.344V1.344H55.1305V6.344H60.1305ZM66.4665 6.344L71.4369 5.80036L70.9494 1.344H66.4665V6.344ZM67.1385 12.488L62.1681 13.0316L62.6556 17.488H67.1385V12.488ZM67.3305 12.488V17.488H70.2641L71.6952 14.9271L67.3305 12.488ZM71.5545 7.208L68.3385 3.37947L68.3385 3.37947L71.5545 7.208ZM86.8185 13.256L81.9545 14.4141L84.9957 27.1874L91.2209 15.6265L86.8185 13.256ZM91.2345 7.4L94.5377 11.1536L94.5474 11.145L91.2345 7.4ZM105.347 8.936L101.285 11.852L101.327 11.9113L101.372 11.9694L105.347 8.936ZM108.131 53V58H113.131V53H108.131ZM100.259 53H95.2585V58H100.259V53ZM91.2345 13.832L87.5083 10.498L87.5029 10.5041L87.4975 10.5102L91.2345 13.832ZM87.7785 19.208L83.3539 16.8793L82.7785 17.9725V19.208H87.7785ZM87.7785 53V58H92.7785V53H87.7785ZM80.4825 53H75.4825V58H80.4825V53ZM79.3305 14.12L74.8584 16.3561L74.9204 16.4802L74.9893 16.6007L79.3305 14.12ZM68.0025 19.208L63.4838 17.0676L63.0025 18.0837V19.208H68.0025ZM68.0025 53V58H73.0025V53H68.0025ZM60.1305 53H65.1305V6.344H60.1305H55.1305V53H60.1305ZM60.1305 6.344V11.344H66.4665V6.344V1.344H60.1305V6.344ZM66.4665 6.344L61.4961 6.88763L62.1681 13.0316L67.1385 12.488L72.1089 11.9444L71.4369 5.80036L66.4665 6.344ZM67.1385 12.488V17.488H67.3305V12.488V7.488H67.1385V12.488ZM67.3305 12.488L71.6952 14.9271C72.6713 13.1804 73.7144 11.9236 74.7705 11.0365L71.5545 7.208L68.3385 3.37947C66.1946 5.18038 64.4217 7.44356 62.9658 10.0489L67.3305 12.488ZM71.5545 7.208L74.7705 11.0365C75.2375 10.6442 76.1313 10.192 77.9865 10.192V5.192V0.191998C74.4657 0.191998 71.0715 1.08382 68.3385 3.37947L71.5545 7.208ZM77.9865 5.192V10.192C79.2506 10.192 79.8711 10.5279 80.2792 10.9004L83.6505 7.208L87.0218 3.51557C84.4859 1.20011 81.3304 0.191998 77.9865 0.191998V5.192ZM83.6505 7.208L80.2792 10.9004C80.7752 11.3534 81.4598 12.3366 81.9545 14.4141L86.8185 13.256L91.6825 12.0979C90.8972 8.79944 89.4698 5.75063 87.0218 3.51557L83.6505 7.208ZM86.8185 13.256L91.2209 15.6265C92.3709 13.4908 93.5033 12.0638 94.5376 11.1536L91.2345 7.4L87.9314 3.64643C85.7657 5.55224 83.9541 8.02921 82.4161 10.8855L86.8185 13.256ZM91.2345 7.4L94.5474 11.145C95.1144 10.6434 96.0264 10.192 97.7625 10.192V5.192V0.191998C94.1226 0.191998 90.6826 1.21258 87.9216 3.65502L91.2345 7.4ZM97.7625 5.192V10.192C99.5338 10.192 100.499 10.7571 101.285 11.852L105.347 8.936L109.408 6.01996C106.61 2.12286 102.519 0.191998 97.7625 0.191998V5.192ZM105.347 8.936L101.372 11.9694C102.294 13.1775 103.131 15.4697 103.131 19.592H108.131H113.131C113.131 14.3703 112.111 9.55848 109.321 5.90263L105.347 8.936ZM108.131 19.592H103.131V53H108.131H113.131V19.592H108.131ZM108.131 53V48H100.259V53V58H108.131V53ZM100.259 53H105.259V20.168H100.259H95.2585V53H100.259ZM100.259 20.168H105.259C105.259 17.1009 104.819 13.9608 103.276 11.4387C101.488 8.51628 98.5789 7.008 95.2665 7.008V12.008V17.008C95.406 17.008 95.2845 17.0318 95.0582 16.9086C94.8222 16.78 94.7298 16.6319 94.7453 16.6573C94.7812 16.7158 94.9219 16.9818 95.0473 17.597C95.1715 18.2061 95.2585 19.0477 95.2585 20.168H100.259ZM95.2665 12.008V7.008C92.2121 7.008 89.5234 8.24588 87.5083 10.498L91.2345 13.832L94.9607 17.166C95.0291 17.0895 95.0764 17.0506 95.0985 17.034C95.1195 17.0182 95.1257 17.0167 95.1193 17.0195C95.1128 17.0225 95.1123 17.0215 95.1258 17.0187C95.1404 17.0156 95.1845 17.008 95.2665 17.008V12.008ZM91.2345 13.832L87.4975 10.5102C86.0738 12.1118 84.7 14.3216 83.3539 16.8793L87.7785 19.208L92.2031 21.5367C93.417 19.2304 94.3472 17.8562 94.9715 17.1538L91.2345 13.832ZM87.7785 19.208H82.7785V53H87.7785H92.7785V19.208H87.7785ZM87.7785 53V48H80.4825V53V58H87.7785V53ZM80.4825 53H85.4825V20.168H80.4825H75.4825V53H80.4825ZM80.4825 20.168H85.4825C85.4825 17.1677 85.0826 14.1084 83.6717 11.6393L79.3305 14.12L74.9893 16.6007C75.1144 16.8196 75.4825 17.7923 75.4825 20.168H80.4825ZM79.3305 14.12L83.8026 11.8839C83.0679 10.4145 81.9492 9.10826 80.3957 8.20887C78.8696 7.32532 77.2254 7.008 75.6825 7.008V12.008V17.008C75.8676 17.008 75.6954 17.0427 75.3853 16.8631C75.2369 16.7772 75.1075 16.6701 75.0068 16.5594C74.9091 16.4519 74.8662 16.3717 74.8584 16.3561L79.3305 14.12ZM75.6825 12.008V7.008C72.6506 7.008 69.9991 8.22034 67.923 10.2965L71.4585 13.832L74.994 17.3675C75.3499 17.0117 75.5144 17.008 75.6825 17.008V12.008ZM71.4585 13.832L67.923 10.2965C66.1872 12.0322 64.7428 14.4097 63.4838 17.0676L68.0025 19.208L72.5212 21.3484C73.5662 19.1423 74.4258 17.9358 74.994 17.3675L71.4585 13.832ZM68.0025 19.208H63.0025V53H68.0025H73.0025V19.208H68.0025ZM68.0025 53V48H60.1305V53V58H68.0025V53Z" fill="#FBBF24" fill-opacity="0.28" mask="url(#path-1-outside-1_19_229)"/>
</svg>
