<svg width="58" height="90" viewBox="0 0 58 90" fill="none" xmlns="http://www.w3.org/2000/svg">
<mask id="path-1-outside-1_14_230" maskUnits="userSpaceOnUse" x="0" y="0" width="58" height="90" fill="black">
<rect fill="white" width="58" height="90"/>
<path d="M1 58V1.36H3.88V58H1ZM6.76 58V1.36H15.4V58H6.76ZM24.04 58V1.36H29.8V58H24.04ZM9.736 66.352H12.136L21.448 82.864V66.352H24.232V66.64C24.04 66.768 23.944 66.928 23.944 67.12C23.88 67.248 23.848 67.536 23.848 67.984V88.624H21.928L12.04 71.152V88.624H9.736V66.352ZM32.6875 58V1.36H35.5675V58H32.6875ZM38.4475 58V1.36H47.0875V58H38.4475ZM49.9675 58V1.36H55.7275V58H49.9675ZM41.0395 66.352H43.0555L48.5275 77.296L54.0955 66.352H56.0155V88.624H53.6155V71.824L48.8155 80.848H47.8555L43.3435 71.92V88.624H41.0395V66.352Z"/>
</mask>
<path d="M1 58V1.36H3.88V58H1ZM6.76 58V1.36H15.4V58H6.76ZM24.04 58V1.36H29.8V58H24.04ZM9.736 66.352H12.136L21.448 82.864V66.352H24.232V66.64C24.04 66.768 23.944 66.928 23.944 67.12C23.88 67.248 23.848 67.536 23.848 67.984V88.624H21.928L12.04 71.152V88.624H9.736V66.352ZM32.6875 58V1.36H35.5675V58H32.6875ZM38.4475 58V1.36H47.0875V58H38.4475ZM49.9675 58V1.36H55.7275V58H49.9675ZM41.0395 66.352H43.0555L48.5275 77.296L54.0955 66.352H56.0155V88.624H53.6155V71.824L48.8155 80.848H47.8555L43.3435 71.92V88.624H41.0395V66.352Z" fill="white"/>
<path d="M1 58H0V59H1V58ZM1 1.36V0.359997H0V1.36H1ZM3.88 1.36H4.88V0.359997H3.88V1.36ZM3.88 58V59H4.88V58H3.88ZM6.76 58H5.76V59H6.76V58ZM6.76 1.36V0.359997H5.76V1.36H6.76ZM15.4 1.36H16.4V0.359997H15.4V1.36ZM15.4 58V59H16.4V58H15.4ZM24.04 58H23.04V59H24.04V58ZM24.04 1.36V0.359997H23.04V1.36H24.04ZM29.8 1.36H30.8V0.359997H29.8V1.36ZM29.8 58V59H30.8V58H29.8ZM9.736 66.352V65.352H8.736V66.352H9.736ZM12.136 66.352L13.007 65.8608L12.7201 65.352H12.136V66.352ZM21.448 82.864L20.577 83.3552L22.448 86.6729V82.864H21.448ZM21.448 66.352V65.352H20.448V66.352H21.448ZM24.232 66.352H25.232V65.352H24.232V66.352ZM24.232 66.64L24.7867 67.4721L25.232 67.1752V66.64H24.232ZM23.944 67.12L24.8384 67.5672L24.944 67.3561V67.12H23.944ZM23.848 88.624V89.624H24.848V88.624H23.848ZM21.928 88.624L21.0577 89.1165L21.3449 89.624H21.928V88.624ZM12.04 71.152L12.9103 70.6595L11.04 67.3547V71.152H12.04ZM12.04 88.624V89.624H13.04V88.624H12.04ZM9.736 88.624H8.736V89.624H9.736V88.624ZM1 58H2V1.36H1H0V58H1ZM1 1.36V2.36H3.88V1.36V0.359997H1V1.36ZM3.88 1.36H2.88V58H3.88H4.88V1.36H3.88ZM3.88 58V57H1V58V59H3.88V58ZM6.76 58H7.76V1.36H6.76H5.76V58H6.76ZM6.76 1.36V2.36H15.4V1.36V0.359997H6.76V1.36ZM15.4 1.36H14.4V58H15.4H16.4V1.36H15.4ZM15.4 58V57H6.76V58V59H15.4V58ZM24.04 58H25.04V1.36H24.04H23.04V58H24.04ZM24.04 1.36V2.36H29.8V1.36V0.359997H24.04V1.36ZM29.8 1.36H28.8V58H29.8H30.8V1.36H29.8ZM29.8 58V57H24.04V58V59H29.8V58ZM9.736 66.352V67.352H12.136V66.352V65.352H9.736V66.352ZM12.136 66.352L11.265 66.8432L20.577 83.3552L21.448 82.864L22.319 82.3728L13.007 65.8608L12.136 66.352ZM21.448 82.864H22.448V66.352H21.448H20.448V82.864H21.448ZM21.448 66.352V67.352H24.232V66.352V65.352H21.448V66.352ZM24.232 66.352H23.232V66.64H24.232H25.232V66.352H24.232ZM24.232 66.64L23.6773 65.808C23.2716 66.0784 22.944 66.5229 22.944 67.12H23.944H24.944C24.944 67.1997 24.9215 67.2904 24.8735 67.3705C24.8518 67.4067 24.8297 67.4325 24.8131 67.4491C24.8049 67.4573 24.7982 67.4631 24.7937 67.4667C24.7914 67.4686 24.7897 67.4699 24.7885 67.4708C24.7879 67.4712 24.7875 67.4715 24.7872 67.4717C24.787 67.4718 24.7869 67.4719 24.7868 67.472C24.7867 67.472 24.7867 67.4721 24.7867 67.4721L24.232 66.64ZM23.944 67.12L23.0496 66.6728C22.9345 66.903 22.8966 67.1553 22.8781 67.3216C22.8565 67.5163 22.848 67.7407 22.848 67.984H23.848H24.848C24.848 67.7793 24.8555 67.6357 24.8659 67.5424C24.871 67.4963 24.8755 67.4745 24.8764 67.4709C24.8784 67.4621 24.8705 67.5031 24.8384 67.5672L23.944 67.12ZM23.848 67.984H22.848V88.624H23.848H24.848V67.984H23.848ZM23.848 88.624V87.624H21.928V88.624V89.624H23.848V88.624ZM21.928 88.624L22.7983 88.1315L12.9103 70.6595L12.04 71.152L11.1697 71.6445L21.0577 89.1165L21.928 88.624ZM12.04 71.152H11.04V88.624H12.04H13.04V71.152H12.04ZM12.04 88.624V87.624H9.736V88.624V89.624H12.04V88.624ZM9.736 88.624H10.736V66.352H9.736H8.736V88.624H9.736ZM32.6875 58H31.6875V59H32.6875V58ZM32.6875 1.36V0.359997H31.6875V1.36H32.6875ZM35.5675 1.36H36.5675V0.359997H35.5675V1.36ZM35.5675 58V59H36.5675V58H35.5675ZM38.4475 58H37.4475V59H38.4475V58ZM38.4475 1.36V0.359997H37.4475V1.36H38.4475ZM47.0875 1.36H48.0875V0.359997H47.0875V1.36ZM47.0875 58V59H48.0875V58H47.0875ZM49.9675 58H48.9675V59H49.9675V58ZM49.9675 1.36V0.359997H48.9675V1.36H49.9675ZM55.7275 1.36H56.7275V0.359997H55.7275V1.36ZM55.7275 58V59H56.7275V58H55.7275ZM41.0395 66.352V65.352H40.0395V66.352H41.0395ZM43.0555 66.352L43.9499 65.9048L43.6735 65.352H43.0555V66.352ZM48.5275 77.296L47.6331 77.7432L48.5197 79.5165L49.4188 77.7495L48.5275 77.296ZM54.0955 66.352V65.352H53.4823L53.2042 65.8985L54.0955 66.352ZM56.0155 66.352H57.0155V65.352H56.0155V66.352ZM56.0155 88.624V89.624H57.0155V88.624H56.0155ZM53.6155 88.624H52.6155V89.624H53.6155V88.624ZM53.6155 71.824H54.6155L52.7326 71.3544L53.6155 71.824ZM48.8155 80.848V81.848H49.4163L49.6984 81.3176L48.8155 80.848ZM47.8555 80.848L46.963 81.299L47.2404 81.848H47.8555V80.848ZM43.3435 71.92L44.236 71.469L42.3435 71.92H43.3435ZM43.3435 88.624V89.624H44.3435V88.624H43.3435ZM41.0395 88.624H40.0395V89.624H41.0395V88.624ZM32.6875 58H33.6875V1.36H32.6875H31.6875V58H32.6875ZM32.6875 1.36V2.36H35.5675V1.36V0.359997H32.6875V1.36ZM35.5675 1.36H34.5675V58H35.5675H36.5675V1.36H35.5675ZM35.5675 58V57H32.6875V58V59H35.5675V58ZM38.4475 58H39.4475V1.36H38.4475H37.4475V58H38.4475ZM38.4475 1.36V2.36H47.0875V1.36V0.359997H38.4475V1.36ZM47.0875 1.36H46.0875V58H47.0875H48.0875V1.36H47.0875ZM47.0875 58V57H38.4475V58V59H47.0875V58ZM49.9675 58H50.9675V1.36H49.9675H48.9675V58H49.9675ZM49.9675 1.36V2.36H55.7275V1.36V0.359997H49.9675V1.36ZM55.7275 1.36H54.7275V58H55.7275H56.7275V1.36H55.7275ZM55.7275 58V57H49.9675V58V59H55.7275V58ZM41.0395 66.352V67.352H43.0555V66.352V65.352H41.0395V66.352ZM43.0555 66.352L42.1611 66.7992L47.6331 77.7432L48.5275 77.296L49.4219 76.8488L43.9499 65.9048L43.0555 66.352ZM48.5275 77.296L49.4188 77.7495L54.9868 66.8055L54.0955 66.352L53.2042 65.8985L47.6362 76.8425L48.5275 77.296ZM54.0955 66.352V67.352H56.0155V66.352V65.352H54.0955V66.352ZM56.0155 66.352H55.0155V88.624H56.0155H57.0155V66.352H56.0155ZM56.0155 88.624V87.624H53.6155V88.624V89.624H56.0155V88.624ZM53.6155 88.624H54.6155V71.824H53.6155H52.6155V88.624H53.6155ZM53.6155 71.824L52.7326 71.3544L47.9326 80.3784L48.8155 80.848L49.6984 81.3176L54.4984 72.2936L53.6155 71.824ZM48.8155 80.848V79.848H47.8555V80.848V81.848H48.8155V80.848ZM47.8555 80.848L48.748 80.397L44.236 71.469L43.3435 71.92L42.451 72.371L46.963 81.299L47.8555 80.848ZM43.3435 71.92H42.3435V88.624H43.3435H44.3435V71.92H43.3435ZM43.3435 88.624V87.624H41.0395V88.624V89.624H43.3435V88.624ZM41.0395 88.624H42.0395V66.352H41.0395H40.0395V88.624H41.0395Z" fill="#3B82F6" mask="url(#path-1-outside-1_14_230)"/>
</svg>
