<svg width="125" height="70" viewBox="0 0 125 70" fill="none" xmlns="http://www.w3.org/2000/svg">
<mask id="path-1-outside-1_15_236" maskUnits="userSpaceOnUse" x="0" y="0" width="125" height="70" fill="black">
<rect fill="white" width="125" height="70"/>
<path d="M34.8125 5.96875C38.0625 5.96875 41.25 6.34375 44.375 7.09375C47.5625 7.84375 50.5938 8.96875 53.4688 10.4688C56.3438 11.9063 58.875 13.8438 61.0625 16.2812C63.3125 18.7188 64.5312 21.625 64.7188 25V28.9375V58.8438C64.3438 62.5938 62.2812 64.625 58.5312 64.9375C56.7812 64.9375 55.25 64.375 53.9375 63.25C52.6875 62.0625 52.0625 60.5938 52.0625 58.8438V27.9062C51.9375 25.9688 51.1875 24.375 49.8125 23.125C48.5 21.8125 47 20.7812 45.3125 20.0312C43.6875 19.2812 41.9688 18.7188 40.1562 18.3438C38.4062 17.9688 36.625 17.7812 34.8125 17.7812C33 17.7812 31.1875 17.9688 29.375 18.3438C27.625 18.7188 25.9062 19.2812 24.2188 20.0312C22.5938 20.7812 21.0938 21.8125 19.7188 23.125C18.4062 24.375 17.6875 25.9688 17.5625 27.9062V58.8438C17.25 62.5938 15.2188 64.625 11.4688 64.9375C9.71875 64.9375 8.1875 64.375 6.875 63.25C5.625 62.0625 5 60.5938 5 58.8438V28.9375V25C5.1875 21.625 6.375 18.7188 8.5625 16.2812C10.75 13.8438 13.2812 11.9063 16.1562 10.4688C19.0312 8.96875 22.0312 7.84375 25.1562 7.09375C28.3438 6.34375 31.5625 5.96875 34.8125 5.96875ZM73.3662 5.96875C75.5537 5.96875 77.6787 6.34375 79.7412 7.09375C81.8662 7.84375 83.8975 8.9375 85.835 10.375C86.1475 10.6875 86.4912 11 86.8662 11.3125C87.1787 11 87.5225 10.6875 87.8975 10.375C89.835 8.9375 91.835 7.84375 93.8975 7.09375C96.0225 6.34375 98.1475 5.96875 100.272 5.96875C102.46 5.96875 104.585 6.34375 106.647 7.09375C108.772 7.84375 110.772 8.96875 112.647 10.4688C114.585 11.9063 116.272 13.8438 117.71 16.2812C119.21 18.7188 119.96 21.625 119.96 25V58.8438C119.585 62.5938 117.522 64.625 113.772 64.9375C112.022 64.9375 110.491 64.375 109.179 63.25C107.929 62.0625 107.304 60.5938 107.304 58.8438V25.75C107.304 24.25 107.022 23 106.46 22C105.897 20.9375 105.272 20.125 104.585 19.5625C103.897 18.9375 103.179 18.5 102.429 18.25C101.679 17.9375 100.929 17.7812 100.179 17.7812C99.4287 17.7812 98.6787 17.9375 97.9287 18.25C97.2412 18.5 96.5537 18.9375 95.8662 19.5625C95.1787 20.125 94.5537 20.9375 93.9912 22C93.4287 23 93.1162 24.25 93.0537 25.75V58.8438C92.6787 62.5938 90.6162 64.625 86.8662 64.9375C85.1162 64.9375 83.585 64.375 82.2725 63.25C81.0225 62.0625 80.3975 60.5938 80.3975 58.8438V25.75C80.3975 24.25 80.1162 23 79.5537 22C78.9912 20.9375 78.3662 20.125 77.6787 19.5625C76.9912 18.9375 76.2725 18.5 75.5225 18.25C74.7725 17.9375 74.0225 17.7812 73.2725 17.7812C72.5225 17.7812 71.7725 17.9375 71.0225 18.25C70.335 18.5 69.6475 18.9375 68.96 19.5625C68.2725 20.125 67.6475 20.9375 67.085 22C66.5225 23 66.21 24.25 66.1475 25.75V58.8438C65.835 62.5938 63.8037 64.625 60.0537 64.9375C58.3037 64.9375 56.7725 64.375 55.46 63.25C54.21 62.0625 53.585 60.5938 53.585 58.8438V25C53.71 21.625 54.4912 18.7188 55.9287 16.2812C57.3662 13.8438 59.0537 11.9063 60.9912 10.4688C62.9287 8.96875 64.9287 7.84375 66.9912 7.09375C69.1162 6.34375 71.2412 5.96875 73.3662 5.96875Z"/>
</mask>
<path d="M34.8125 5.96875C38.0625 5.96875 41.25 6.34375 44.375 7.09375C47.5625 7.84375 50.5938 8.96875 53.4688 10.4688C56.3438 11.9063 58.875 13.8438 61.0625 16.2812C63.3125 18.7188 64.5312 21.625 64.7188 25V28.9375V58.8438C64.3438 62.5938 62.2812 64.625 58.5312 64.9375C56.7812 64.9375 55.25 64.375 53.9375 63.25C52.6875 62.0625 52.0625 60.5938 52.0625 58.8438V27.9062C51.9375 25.9688 51.1875 24.375 49.8125 23.125C48.5 21.8125 47 20.7812 45.3125 20.0312C43.6875 19.2812 41.9688 18.7188 40.1562 18.3438C38.4062 17.9688 36.625 17.7812 34.8125 17.7812C33 17.7812 31.1875 17.9688 29.375 18.3438C27.625 18.7188 25.9062 19.2812 24.2188 20.0312C22.5938 20.7812 21.0938 21.8125 19.7188 23.125C18.4062 24.375 17.6875 25.9688 17.5625 27.9062V58.8438C17.25 62.5938 15.2188 64.625 11.4688 64.9375C9.71875 64.9375 8.1875 64.375 6.875 63.25C5.625 62.0625 5 60.5938 5 58.8438V28.9375V25C5.1875 21.625 6.375 18.7188 8.5625 16.2812C10.75 13.8438 13.2812 11.9063 16.1562 10.4688C19.0312 8.96875 22.0312 7.84375 25.1562 7.09375C28.3438 6.34375 31.5625 5.96875 34.8125 5.96875ZM73.3662 5.96875C75.5537 5.96875 77.6787 6.34375 79.7412 7.09375C81.8662 7.84375 83.8975 8.9375 85.835 10.375C86.1475 10.6875 86.4912 11 86.8662 11.3125C87.1787 11 87.5225 10.6875 87.8975 10.375C89.835 8.9375 91.835 7.84375 93.8975 7.09375C96.0225 6.34375 98.1475 5.96875 100.272 5.96875C102.46 5.96875 104.585 6.34375 106.647 7.09375C108.772 7.84375 110.772 8.96875 112.647 10.4688C114.585 11.9063 116.272 13.8438 117.71 16.2812C119.21 18.7188 119.96 21.625 119.96 25V58.8438C119.585 62.5938 117.522 64.625 113.772 64.9375C112.022 64.9375 110.491 64.375 109.179 63.25C107.929 62.0625 107.304 60.5938 107.304 58.8438V25.75C107.304 24.25 107.022 23 106.46 22C105.897 20.9375 105.272 20.125 104.585 19.5625C103.897 18.9375 103.179 18.5 102.429 18.25C101.679 17.9375 100.929 17.7812 100.179 17.7812C99.4287 17.7812 98.6787 17.9375 97.9287 18.25C97.2412 18.5 96.5537 18.9375 95.8662 19.5625C95.1787 20.125 94.5537 20.9375 93.9912 22C93.4287 23 93.1162 24.25 93.0537 25.75V58.8438C92.6787 62.5938 90.6162 64.625 86.8662 64.9375C85.1162 64.9375 83.585 64.375 82.2725 63.25C81.0225 62.0625 80.3975 60.5938 80.3975 58.8438V25.75C80.3975 24.25 80.1162 23 79.5537 22C78.9912 20.9375 78.3662 20.125 77.6787 19.5625C76.9912 18.9375 76.2725 18.5 75.5225 18.25C74.7725 17.9375 74.0225 17.7812 73.2725 17.7812C72.5225 17.7812 71.7725 17.9375 71.0225 18.25C70.335 18.5 69.6475 18.9375 68.96 19.5625C68.2725 20.125 67.6475 20.9375 67.085 22C66.5225 23 66.21 24.25 66.1475 25.75V58.8438C65.835 62.5938 63.8037 64.625 60.0537 64.9375C58.3037 64.9375 56.7725 64.375 55.46 63.25C54.21 62.0625 53.585 60.5938 53.585 58.8438V25C53.71 21.625 54.4912 18.7188 55.9287 16.2812C57.3662 13.8438 59.0537 11.9063 60.9912 10.4688C62.9287 8.96875 64.9287 7.84375 66.9912 7.09375C69.1162 6.34375 71.2412 5.96875 73.3662 5.96875Z" fill="#22D3EE"/>
<path d="M44.375 7.09375L43.2081 11.9557L43.219 11.9583L43.2298 11.9608L44.375 7.09375ZM53.4688 10.4688L51.1559 14.9017L51.1941 14.9216L51.2327 14.9409L53.4688 10.4688ZM61.0625 16.2812L57.3413 19.6208L57.3647 19.6469L57.3885 19.6727L61.0625 16.2812ZM64.7188 25H69.7188V24.8612L69.7111 24.7226L64.7188 25ZM64.7188 58.8438L69.6939 59.3413L69.7188 59.0931V58.8438H64.7188ZM58.5312 64.9375V69.9375H58.7392L58.9465 69.9202L58.5312 64.9375ZM53.9375 63.25L50.4938 66.875L50.5865 66.9631L50.6835 67.0463L53.9375 63.25ZM52.0625 27.9062H57.0625V27.7451L57.0521 27.5843L52.0625 27.9062ZM49.8125 23.125L46.277 26.6605L46.3611 26.7447L46.4491 26.8247L49.8125 23.125ZM45.3125 20.0312L43.2172 24.571L43.2494 24.5859L43.2818 24.6003L45.3125 20.0312ZM40.1562 18.3438L39.1086 23.2328L39.1259 23.2365L39.1432 23.2401L40.1562 18.3438ZM29.375 18.3438L28.362 13.4474L28.3447 13.451L28.3274 13.4547L29.375 18.3438ZM24.2188 20.0312L22.1881 15.4622L22.1557 15.4766L22.1235 15.4915L24.2188 20.0312ZM19.7188 23.125L23.167 26.7457L23.1711 26.7418L19.7188 23.125ZM17.5625 27.9062L12.5729 27.5843L12.5625 27.7451V27.9062H17.5625ZM17.5625 58.8438L22.5452 59.259L22.5625 59.0517V58.8438H17.5625ZM11.4688 64.9375V69.9375H11.6767L11.884 69.9202L11.4688 64.9375ZM6.875 63.25L3.43125 66.875L3.52396 66.9631L3.62104 67.0463L6.875 63.25ZM5 25L0.00769823 24.7226L0 24.8612V25H5ZM16.1562 10.4688L18.3923 14.9409L18.4309 14.9216L18.4691 14.9017L16.1562 10.4688ZM25.1562 7.09375L24.0111 2.22666L24.0002 2.22921L23.9894 2.23181L25.1562 7.09375ZM34.8125 5.96875V10.9688C37.6739 10.9688 40.4696 11.2984 43.2081 11.9557L44.375 7.09375L45.5419 2.23181C42.0304 1.38905 38.4511 0.96875 34.8125 0.96875V5.96875ZM44.375 7.09375L43.2298 11.9608C46.0155 12.6163 48.6541 13.5964 51.1559 14.9017L53.4688 10.4688L55.7816 6.03583C52.5334 4.3411 49.1095 3.0712 45.5202 2.22666L44.375 7.09375ZM53.4688 10.4688L51.2327 14.9409C53.5351 16.0921 55.5652 17.6417 57.3413 19.6208L61.0625 16.2812L64.7837 12.9417C62.1848 10.0458 59.1524 7.72039 55.7048 5.99661L53.4688 10.4688ZM61.0625 16.2812L57.3885 19.6727C58.8346 21.2392 59.602 23.038 59.7264 25.2774L64.7188 25L69.7111 24.7226C69.4605 20.212 67.7904 16.1983 64.7365 12.8898L61.0625 16.2812ZM64.7188 25H59.7188V28.9375H64.7188H69.7188V25H64.7188ZM64.7188 28.9375H59.7188V58.8438H64.7188H69.7188V28.9375H64.7188ZM64.7188 58.8438L59.7436 58.3462C59.6899 58.8831 59.5899 59.2111 59.5139 59.3915C59.4435 59.5583 59.3903 59.6092 59.3822 59.6173C59.3741 59.6252 59.3232 59.6768 59.1575 59.7437C58.9781 59.816 58.651 59.9102 58.116 59.9548L58.5312 64.9375L58.9465 69.9202C61.6321 69.6964 64.3119 68.7976 66.3991 66.7421C68.4854 64.6874 69.4259 62.0221 69.6939 59.3413L64.7188 58.8438ZM58.5312 64.9375V59.9375C57.9586 59.9375 57.5855 59.7915 57.1915 59.4537L53.9375 63.25L50.6835 67.0463C52.9145 68.9585 55.6039 69.9375 58.5312 69.9375V64.9375ZM53.9375 63.25L57.3812 59.625C57.1416 59.3974 57.0625 59.2465 57.0625 58.8438H52.0625H47.0625C47.0625 61.941 48.2334 64.7276 50.4938 66.875L53.9375 63.25ZM52.0625 58.8438H57.0625V27.9062H52.0625H47.0625V58.8438H52.0625ZM52.0625 27.9062L57.0521 27.5843C56.8478 24.4169 55.5571 21.5901 53.1759 19.4253L49.8125 23.125L46.4491 26.8247C46.8179 27.1599 47.0272 27.5206 47.0729 28.2282L52.0625 27.9062ZM49.8125 23.125L53.348 19.5895C51.6039 17.8453 49.5944 16.4627 47.3432 15.4622L45.3125 20.0312L43.2818 24.6003C44.4056 25.0998 45.3961 25.7797 46.277 26.6605L49.8125 23.125ZM45.3125 20.0312L47.4078 15.4915C45.4252 14.5764 43.3422 13.897 41.1693 13.4474L40.1562 18.3438L39.1432 23.2401C40.5953 23.5405 41.9498 23.9861 43.2172 24.571L45.3125 20.0312ZM40.1562 18.3438L41.2039 13.4547C39.1052 13.005 36.9726 12.7812 34.8125 12.7812V17.7812V22.7812C36.2774 22.7812 37.7073 22.9325 39.1086 23.2328L40.1562 18.3438ZM34.8125 17.7812V12.7812C32.6525 12.7812 30.5007 13.005 28.362 13.4474L29.375 18.3438L30.388 23.2401C31.8743 22.9325 33.3475 22.7812 34.8125 22.7812V17.7812ZM29.375 18.3438L28.3274 13.4547C26.2289 13.9044 24.1813 14.5763 22.1881 15.4622L24.2188 20.0312L26.2494 24.6003C27.6312 23.9862 29.0211 23.5331 30.4226 23.2328L29.375 18.3438ZM24.2188 20.0312L22.1235 15.4915C19.9681 16.4863 18.0149 17.8391 16.2664 19.5082L19.7188 23.125L23.1711 26.7418C24.1726 25.7859 25.2194 25.0762 26.314 24.571L24.2188 20.0312ZM19.7188 23.125L16.2705 19.5043C13.9794 21.6863 12.7725 24.4902 12.5729 27.5843L17.5625 27.9062L22.5521 28.2282C22.6025 27.4473 22.8331 27.0637 23.167 26.7457L19.7188 23.125ZM17.5625 27.9062H12.5625V58.8438H17.5625H22.5625V27.9062H17.5625ZM17.5625 58.8438L12.5798 58.4285C12.5352 58.9636 12.4413 59.285 12.3722 59.4555C12.3384 59.5387 12.3104 59.5867 12.2951 59.6101C12.2804 59.6327 12.2718 59.6415 12.2692 59.6442C12.2665 59.6468 12.2577 59.6554 12.2351 59.6701C12.2117 59.6854 12.1637 59.7134 12.0805 59.7472C11.91 59.8163 11.5886 59.9102 11.0535 59.9548L11.4688 64.9375L11.884 69.9202C14.5669 69.6967 17.2584 68.797 19.3402 66.7152C21.422 64.6334 22.3217 61.9419 22.5452 59.259L17.5625 58.8438ZM11.4688 64.9375V59.9375C10.8961 59.9375 10.523 59.7915 10.129 59.4537L6.875 63.25L3.62104 67.0463C5.85197 68.9585 8.54137 69.9375 11.4688 69.9375V64.9375ZM6.875 63.25L10.3187 59.625C10.0791 59.3974 10 59.2465 10 58.8438H5H0C0 61.941 1.17085 64.7276 3.43125 66.875L6.875 63.25ZM5 58.8438H10V28.9375H5H0V58.8438H5ZM5 28.9375H10V25H5H0V28.9375H5ZM5 25L9.9923 25.2774C10.1189 22.9985 10.8818 21.1829 12.2837 19.6208L8.5625 16.2812L4.84129 12.9417C1.86817 16.2546 0.256095 20.2515 0.00769823 24.7226L5 25ZM8.5625 16.2812L12.2837 19.6208C14.0598 17.6417 16.0899 16.0921 18.3923 14.9409L16.1562 10.4688L13.9202 5.99661C10.4726 7.72039 7.44019 10.0458 4.84129 12.9417L8.5625 16.2812ZM16.1562 10.4688L18.4691 14.9017C20.9844 13.5893 23.5998 12.6093 26.3231 11.9557L25.1562 7.09375L23.9894 2.23181C20.4627 3.07823 17.0781 4.34817 13.8434 6.03583L16.1562 10.4688ZM25.1562 7.09375L26.3014 11.9608C29.1165 11.2985 31.951 10.9688 34.8125 10.9688V5.96875V0.96875C31.174 0.96875 27.571 1.38902 24.0111 2.22666L25.1562 7.09375ZM79.7412 7.09375L78.0325 11.7927L78.0548 11.8008L78.0771 11.8087L79.7412 7.09375ZM85.835 10.375L89.3705 6.83947L89.1101 6.579L88.8142 6.35951L85.835 10.375ZM86.8662 11.3125L83.6653 15.1536L87.1731 18.0767L90.4018 14.848L86.8662 11.3125ZM87.8975 10.375L84.9183 6.35951L84.805 6.44357L84.6966 6.53389L87.8975 10.375ZM93.8975 7.09375L92.2334 2.3788L92.2111 2.38668L92.1888 2.39478L93.8975 7.09375ZM106.647 7.09375L104.939 11.7927L104.961 11.8008L104.983 11.8087L106.647 7.09375ZM112.647 10.4688L109.524 14.3731L109.595 14.43L109.668 14.4842L112.647 10.4688ZM117.71 16.2812L113.403 18.8212L113.427 18.8617L113.452 18.9017L117.71 16.2812ZM119.96 58.8438L124.935 59.3413L124.96 59.0931V58.8438H119.96ZM113.772 64.9375V69.9375H113.98L114.188 69.9202L113.772 64.9375ZM109.179 63.25L105.735 66.875L105.828 66.9631L105.925 67.0463L109.179 63.25ZM106.46 22L102.041 24.3394L102.071 24.3958L102.102 24.4513L106.46 22ZM104.585 19.5625L101.222 23.2622L101.318 23.3498L101.419 23.4323L104.585 19.5625ZM102.429 18.25L100.506 22.8654L100.674 22.9356L100.848 22.9934L102.429 18.25ZM97.9287 18.25L99.6375 22.949L99.7456 22.9096L99.8518 22.8654L97.9287 18.25ZM95.8662 19.5625L99.0324 23.4323L99.1332 23.3498L99.2296 23.2622L95.8662 19.5625ZM93.9912 22L98.3491 24.4513L98.3804 24.3958L98.4102 24.3394L93.9912 22ZM93.0537 25.75L88.0581 25.5418L88.0537 25.6459V25.75H93.0537ZM93.0537 58.8438L98.0289 59.3413L98.0537 59.0931V58.8438H93.0537ZM86.8662 64.9375V69.9375H87.0742L87.2815 69.9202L86.8662 64.9375ZM82.2725 63.25L78.8288 66.875L78.9215 66.9631L79.0185 67.0463L82.2725 63.25ZM79.5537 22L75.1348 24.3394L75.1646 24.3958L75.1959 24.4513L79.5537 22ZM77.6787 19.5625L74.3154 23.2622L74.4118 23.3498L74.5126 23.4323L77.6787 19.5625ZM75.5225 18.25L73.5994 22.8654L73.7681 22.9356L73.9414 22.9934L75.5225 18.25ZM71.0225 18.25L72.7312 22.949L72.8394 22.9096L72.9456 22.8654L71.0225 18.25ZM68.96 19.5625L72.1262 23.4323L72.227 23.3498L72.3234 23.2622L68.96 19.5625ZM67.085 22L71.4429 24.4513L71.4741 24.3958L71.5039 24.3394L67.085 22ZM66.1475 25.75L61.1518 25.5418L61.1475 25.6459V25.75H66.1475ZM66.1475 58.8438L71.1302 59.259L71.1475 59.0517V58.8438H66.1475ZM60.0537 64.9375V69.9375H60.2617L60.469 69.9202L60.0537 64.9375ZM55.46 63.25L52.0163 66.875L52.109 66.9631L52.206 67.0463L55.46 63.25ZM53.585 25L48.5884 24.8149L48.585 24.9074V25H53.585ZM60.9912 10.4688L63.9705 14.4842L64.0116 14.4537L64.0521 14.4224L60.9912 10.4688ZM66.9912 7.09375L65.3271 2.3788L65.3048 2.38668L65.2825 2.39478L66.9912 7.09375ZM73.3662 5.96875V10.9688C74.969 10.9688 76.5159 11.2412 78.0325 11.7927L79.7412 7.09375L81.45 2.39478C78.8416 1.44629 76.1385 0.96875 73.3662 0.96875V5.96875ZM79.7412 7.09375L78.0771 11.8087C79.6992 12.3812 81.291 13.2295 82.8558 14.3905L85.835 10.375L88.8142 6.35951C86.504 4.64548 84.0333 3.3063 81.4053 2.3788L79.7412 7.09375ZM85.835 10.375L82.2995 13.9105C82.7292 14.3403 83.1861 14.7542 83.6653 15.1536L86.8662 11.3125L90.0672 7.47139C89.7964 7.24578 89.5658 7.03474 89.3705 6.83947L85.835 10.375ZM86.8662 11.3125L90.4018 14.848C90.5971 14.6528 90.8277 14.4417 91.0984 14.2161L87.8975 10.375L84.6966 6.53389C84.2173 6.93328 83.7604 7.34724 83.3307 7.77697L86.8662 11.3125ZM87.8975 10.375L90.8767 14.3905C92.4642 13.2127 94.0407 12.362 95.6062 11.7927L93.8975 7.09375L92.1888 2.39478C89.6293 3.32549 87.2058 4.6623 84.9183 6.35951L87.8975 10.375ZM93.8975 7.09375L95.5616 11.8087C97.1846 11.2359 98.7478 10.9688 100.272 10.9688V5.96875V0.96875C97.5472 0.96875 94.8604 1.45162 92.2334 2.3788L93.8975 7.09375ZM100.272 5.96875V10.9688C101.875 10.9688 103.422 11.2412 104.939 11.7927L106.647 7.09375L108.356 2.39478C105.748 1.44629 103.045 0.96875 100.272 0.96875V5.96875ZM106.647 7.09375L104.983 11.8087C106.546 12.3603 108.058 13.2001 109.524 14.3731L112.647 10.4688L115.771 6.56441C113.487 4.73738 110.999 3.32721 108.312 2.3788L106.647 7.09375ZM112.647 10.4688L109.668 14.4842C110.985 15.4608 112.247 16.8611 113.403 18.8212L117.71 16.2812L122.017 13.7413C120.298 10.8264 118.185 8.35168 115.627 6.45326L112.647 10.4688ZM117.71 16.2812L113.452 18.9017C114.386 20.4195 114.96 22.3824 114.96 25H119.96H124.96C124.96 20.8676 124.034 17.018 121.968 13.6608L117.71 16.2812ZM119.96 25H114.96V58.8438H119.96H124.96V25H119.96ZM119.96 58.8438L114.985 58.3462C114.931 58.8831 114.831 59.2111 114.755 59.3915C114.685 59.5583 114.632 59.6092 114.623 59.6173C114.615 59.6252 114.564 59.6768 114.399 59.7437C114.219 59.816 113.892 59.9102 113.357 59.9548L113.772 64.9375L114.188 69.9202C116.873 69.6964 119.553 68.7976 121.64 66.7421C123.727 64.6874 124.667 62.0221 124.935 59.3413L119.96 58.8438ZM113.772 64.9375V59.9375C113.2 59.9375 112.827 59.7915 112.433 59.4537L109.179 63.25L105.925 67.0463C108.156 68.9585 110.845 69.9375 113.772 69.9375V64.9375ZM109.179 63.25L112.622 59.625C112.383 59.3974 112.304 59.2465 112.304 58.8438H107.304H102.304C102.304 61.941 103.475 64.7276 105.735 66.875L109.179 63.25ZM107.304 58.8438H112.304V25.75H107.304H102.304V58.8438H107.304ZM107.304 25.75H112.304C112.304 23.6477 111.911 21.4926 110.818 19.5487L106.46 22L102.102 24.4513C102.134 24.5074 102.304 24.8523 102.304 25.75H107.304ZM106.46 22L110.879 19.6606C110.109 18.2053 109.101 16.7975 107.751 15.6927L104.585 19.5625L101.419 23.4323C101.444 23.4525 101.686 23.6697 102.041 24.3394L106.46 22ZM104.585 19.5625L107.948 15.8628C106.835 14.8507 105.526 14.0118 104.01 13.5066L102.429 18.25L100.848 22.9934C100.832 22.9882 100.96 23.0243 101.222 23.2622L104.585 19.5625ZM102.429 18.25L104.352 13.6346C103.044 13.0896 101.642 12.7812 100.179 12.7812V17.7812V22.7812C100.215 22.7812 100.314 22.7854 100.506 22.8654L102.429 18.25ZM100.179 17.7812V12.7812C98.7153 12.7812 97.3138 13.0896 96.0057 13.6346L97.9287 18.25L99.8518 22.8654C100.044 22.7854 100.142 22.7812 100.179 22.7812V17.7812ZM97.9287 18.25L96.22 13.551C94.7805 14.0745 93.5469 14.9137 92.5029 15.8628L95.8662 19.5625L99.2296 23.2622C99.5606 22.9613 99.702 22.9255 99.6375 22.949L97.9287 18.25ZM95.8662 19.5625L92.7001 15.6927C91.3498 16.7975 90.3427 18.2053 89.5723 19.6606L93.9912 22L98.4102 24.3394C98.7648 23.6697 99.0077 23.4525 99.0324 23.4323L95.8662 19.5625ZM93.9912 22L89.6334 19.5487C88.584 21.4143 88.1436 23.4884 88.0581 25.5418L93.0537 25.75L98.0494 25.9582C98.0889 25.0116 98.2735 24.5857 98.3491 24.4513L93.9912 22ZM93.0537 25.75H88.0537V58.8438H93.0537H98.0537V25.75H93.0537ZM93.0537 58.8438L88.0786 58.3462C88.0249 58.8831 87.9249 59.2111 87.8489 59.3915C87.7785 59.5583 87.7253 59.6092 87.7172 59.6173C87.7091 59.6252 87.6582 59.6768 87.4925 59.7437C87.3131 59.816 86.986 59.9102 86.451 59.9548L86.8662 64.9375L87.2815 69.9202C89.9671 69.6964 92.6469 68.7976 94.7341 66.7421C96.8204 64.6874 97.7609 62.0221 98.0289 59.3413L93.0537 58.8438ZM86.8662 64.9375V59.9375C86.2936 59.9375 85.9205 59.7915 85.5265 59.4537L82.2725 63.25L79.0185 67.0463C81.2495 68.9585 83.9389 69.9375 86.8662 69.9375V64.9375ZM82.2725 63.25L85.7162 59.625C85.4766 59.3974 85.3975 59.2465 85.3975 58.8438H80.3975H75.3975C75.3975 61.941 76.5684 64.7276 78.8288 66.875L82.2725 63.25ZM80.3975 58.8438H85.3975V25.75H80.3975H75.3975V58.8438H80.3975ZM80.3975 25.75H85.3975C85.3975 23.6477 85.0051 21.4926 83.9116 19.5487L79.5537 22L75.1959 24.4513C75.2274 24.5074 75.3975 24.8523 75.3975 25.75H80.3975ZM79.5537 22L83.9727 19.6606C83.2023 18.2053 82.1952 16.7975 80.8449 15.6927L77.6787 19.5625L74.5126 23.4323C74.5373 23.4525 74.7802 23.6697 75.1348 24.3394L79.5537 22ZM77.6787 19.5625L81.0421 15.8628C79.9288 14.8507 78.6194 14.0118 77.1036 13.5066L75.5225 18.25L73.9414 22.9934C73.9256 22.9882 74.0537 23.0243 74.3154 23.2622L77.6787 19.5625ZM75.5225 18.25L77.4456 13.6346C76.1374 13.0896 74.7359 12.7812 73.2725 12.7812V17.7812V22.7812C73.3091 22.7812 73.4076 22.7854 73.5994 22.8654L75.5225 18.25ZM73.2725 17.7812V12.7812C71.8091 12.7812 70.4076 13.0896 69.0994 13.6346L71.0225 18.25L72.9456 22.8654C73.1374 22.7854 73.2359 22.7812 73.2725 22.7812V17.7812ZM71.0225 18.25L69.3138 13.551C67.8742 14.0745 66.6406 14.9137 65.5966 15.8628L68.96 19.5625L72.3234 23.2622C72.6544 22.9613 72.7958 22.9255 72.7312 22.949L71.0225 18.25ZM68.96 19.5625L65.7938 15.6927C64.4436 16.7975 63.4365 18.2053 62.6661 19.6606L67.085 22L71.5039 24.3394C71.8585 23.6697 72.1014 23.4525 72.1262 23.4323L68.96 19.5625ZM67.085 22L62.7271 19.5487C61.6777 21.4143 61.2374 23.4884 61.1518 25.5418L66.1475 25.75L71.1432 25.9582C71.1826 25.0116 71.3673 24.5857 71.4429 24.4513L67.085 22ZM66.1475 25.75H61.1475V58.8438H66.1475H71.1475V25.75H66.1475ZM66.1475 58.8438L61.1648 58.4285C61.1202 58.9636 61.0263 59.285 60.9572 59.4555C60.9234 59.5387 60.8954 59.5867 60.8801 59.6101C60.8654 59.6327 60.8568 59.6415 60.8542 59.6442C60.8515 59.6468 60.8427 59.6554 60.8201 59.6701C60.7967 59.6854 60.7487 59.7134 60.6655 59.7472C60.495 59.8163 60.1736 59.9102 59.6385 59.9548L60.0537 64.9375L60.469 69.9202C63.1519 69.6967 65.8434 68.797 67.9252 66.7152C70.007 64.6334 70.9067 61.9419 71.1302 59.259L66.1475 58.8438ZM60.0537 64.9375V59.9375C59.4811 59.9375 59.108 59.7915 58.714 59.4537L55.46 63.25L52.206 67.0463C54.437 68.9585 57.1264 69.9375 60.0537 69.9375V64.9375ZM55.46 63.25L58.9037 59.625C58.6641 59.3974 58.585 59.2465 58.585 58.8438H53.585H48.585C48.585 61.941 49.7559 64.7276 52.0163 66.875L55.46 63.25ZM53.585 58.8438H58.585V25H53.585H48.585V58.8438H53.585ZM53.585 25L58.5816 25.1851C58.6818 22.48 59.2946 20.4168 60.2356 18.8212L55.9287 16.2812L51.6219 13.7413C49.6879 17.0207 48.7382 20.77 48.5884 24.8149L53.585 25ZM55.9287 16.2812L60.2356 18.8212C61.3915 16.8611 62.6542 15.4608 63.9705 14.4842L60.9912 10.4688L58.012 6.45326C55.4533 8.35168 53.341 10.8264 51.6219 13.7413L55.9287 16.2812ZM60.9912 10.4688L64.0521 14.4224C65.6274 13.2028 67.1771 12.3465 68.7 11.7927L66.9912 7.09375L65.2825 2.39478C62.6804 3.34101 60.2301 4.73468 57.9304 6.51513L60.9912 10.4688ZM66.9912 7.09375L68.6553 11.8087C70.2783 11.2359 71.8416 10.9688 73.3662 10.9688V5.96875V0.96875C70.6409 0.96875 67.9542 1.45162 65.3271 2.3788L66.9912 7.09375Z" fill="#3B82F6" fill-opacity="0.28" mask="url(#path-1-outside-1_15_236)"/>
</svg>
