<svg width="56" height="88" viewBox="0 0 56 88" fill="none" xmlns="http://www.w3.org/2000/svg">
<path d="M0 57V0.359997H2.88V57H0ZM5.76 57V0.359997H14.4V57H5.76ZM23.04 57V0.359997H28.8V57H23.04ZM8.736 65.352H11.136L20.448 81.864V65.352H23.232V65.64C23.04 65.768 22.944 65.928 22.944 66.12C22.88 66.248 22.848 66.536 22.848 66.984V87.624H20.928L11.04 70.152V87.624H8.736V65.352ZM31.6875 57V0.359997H34.5675V57H31.6875ZM37.4475 57V0.359997H46.0875V57H37.4475ZM48.9675 57V0.359997H54.7275V57H48.9675ZM40.0395 65.352H42.0555L47.5275 76.296L53.0955 65.352H55.0155V87.624H52.6155V70.824L47.8155 79.848H46.8555L42.3435 70.92V87.624H40.0395V65.352Z" fill="#3B82F6"/>
</svg>
